<?xml version="1.0" encoding="UTF-8" standalone="no"?>
<svg width="291px" height="39px" viewBox="0 0 291 39" version="1.1" xmlns="http://www.w3.org/2000/svg" xmlns:xlink="http://www.w3.org/1999/xlink">
    <!-- Generator: Sketch 42 (36781) - http://www.bohemiancoding.com/sketch -->
    <title>Group 4</title>
    <desc>Created with Sketch.</desc>
    <defs></defs>
    <g id="Page-1" stroke="none" stroke-width="1" fill="none" fill-rule="evenodd">
        <g id="B1-a1-帖子详情--3-Copy-6" transform="translate(-230.000000, -2776.000000)">
            <g id="Group-4" transform="translate(230.000000, 2776.000000)">
                <g id="Page-1">
                    <path d="M202.499577,39 C196.020051,39 190.359254,34.4601607 189.039448,28.2059478 C188.83018,27.2150184 189.474381,26.2457622 190.477089,26.0391814 C191.48341,25.8317776 192.462773,26.4685293 192.672041,27.4583613 C193.635841,32.0242632 197.768397,35.3372375 202.499577,35.3372375 C207.230757,35.3372375 211.364147,32.0242632 212.327947,27.4583613 C212.536382,26.4685293 213.515745,25.8317776 214.522899,26.0391814 C215.525885,26.2457622 216.169808,27.2150184 215.96054,28.2059478 C214.640734,34.4601607 208.979104,39 202.499577,39" id="Fill-6" fill="#FF9900"></path>
                    <path d="M245.196517,16.9940905 L228.755238,16.9940905 L228.755238,12.0459583 C228.755238,11.0464644 227.947926,10.2361884 226.951755,10.2361884 C225.955854,10.2361884 225.148272,11.0464644 225.148272,12.0459583 L225.148272,16.9940905 L211.820331,16.9940905 L212.897287,7.33367095 C213.028597,6.16203739 214.01234,5.27938148 215.187103,5.27938148 L238.036623,5.27938148 C239.880903,5.27938148 241.67574,4.74723973 243.22633,3.74096861 L243.860454,3.32918903 C244.696405,2.786746 244.935789,1.6663477 244.394339,0.826794456 C243.853429,-0.0108611856 242.736756,-0.253754213 241.900264,0.291399669 L241.266951,0.70209491 C240.301851,1.32857458 239.184367,1.66011272 238.036623,1.66011272 L215.187103,1.66011272 C212.173463,1.66011272 209.647506,3.92639141 209.313017,6.9308372 L208.011267,18.6021725 C207.953988,19.1139828 208.11691,19.6263353 208.458693,20.0099219 C208.801287,20.3940507 209.290052,20.6133593 209.803402,20.6133593 L225.148272,20.6133593 L225.148272,33.7003055 C225.148272,34.0069037 224.968599,34.1801276 224.861876,34.2560317 C224.755424,34.3313936 224.532521,34.446063 224.243694,34.3427792 L219.585169,32.6975585 C218.646277,32.3668336 217.615793,32.8610233 217.284817,33.8038603 C216.954381,34.7464262 217.447738,35.7795348 218.38744,36.1116151 L223.047046,37.757107 C223.508521,37.9194875 223.98918,38 224.466596,38 C225.344426,38 226.213881,37.7305405 226.946622,37.2092422 C228.078966,36.4041169 228.755238,35.0928741 228.755238,33.7003055 L228.755238,20.6133593 L245.196517,20.6133593 C246.192688,20.6133593 247,19.8030833 247,18.8035893 C247,17.8043665 246.192688,16.9940905 245.196517,16.9940905" id="Fill-8" fill="#0096E5"></path>
                    <path d="M196.80002,8.64181317 L193.793425,17.5968472 L186.964318,17.5968472 L186.964318,7.95772314 L196.297095,7.95772314 C196.532542,7.95772314 196.667124,8.09277361 196.726688,8.17369343 C196.78541,8.25378471 196.874194,8.42225259 196.80002,8.64181317 M202.124566,17.5968472 L197.744058,17.5968472 L200.362361,9.79761325 C200.791955,8.51836213 200.568588,7.1043367 199.766155,6.01316201 C198.964004,4.92226349 197.667355,4.27048614 196.297095,4.27048614 L186.964318,4.27048614 L186.964318,2.84348041 C186.964318,1.82549258 186.124517,1 185.088884,1 C184.05297,1 183.213169,1.82549258 183.213169,2.84348041 L183.213169,4.27048614 L174.46002,4.27048614 C173.424107,4.27048614 172.584306,5.09597872 172.584306,6.11396655 C172.584306,7.13223056 173.424107,7.95772314 174.46002,7.95772314 L183.213169,7.95772314 L183.213169,17.5968472 L171.875715,17.5968472 C170.839801,17.5968472 170,18.4223398 170,19.4406038 C170,20.4585916 170.839801,21.2840842 171.875715,21.2840842 L181.388309,21.2840842 L170.362724,36.0661734 C169.751066,36.8872472 169.931445,38.0413902 170.766469,38.6434557 C171.100816,38.8837296 171.489109,39 171.873748,39 C172.451691,39 173.020362,38.7390129 173.388424,38.2465896 L186.039665,21.2840842 L202.124566,21.2840842 C203.160199,21.2840842 204,20.4585916 204,19.4406038 C204,18.4223398 203.160199,17.5968472 202.124566,17.5968472" id="Fill-10" fill="#0096E5"></path>
                    <path d="M289.144815,24.4123573 L271.8581,24.4123573 L271.8581,22.3735124 L280.078447,15.8352386 C281.019798,15.0869153 281.355816,13.8962932 280.935307,12.8016167 C280.51591,11.7072037 279.450603,11 278.223262,11 L257.322897,11 C256.298168,11 255.467434,11.7878613 255.467434,12.7597063 C255.467434,13.7312878 256.298168,14.5191491 257.322897,14.5191491 L275.959241,14.5191491 L268.810594,20.2049828 C268.390363,20.539211 268.147452,21.0323821 268.147452,21.5529663 L268.147452,24.4123573 L249.855463,24.4123573 C248.830734,24.4123573 248,25.2002187 248,26.1720637 C248,27.1436451 248.830734,27.9315064 249.855463,27.9315064 L268.147452,27.9315064 L268.147452,33.8158211 C268.147452,34.0994406 267.976247,34.2668183 267.874802,34.3408862 C267.77169,34.4154813 267.55685,34.5264514 267.267802,34.4560737 L263.757541,33.5633048 C262.769221,33.3089434 261.750884,33.8690656 261.48546,34.8074351 C261.220037,35.745541 261.807026,36.7102692 262.797292,36.9619947 L266.308664,37.8547636 C266.689985,37.9517636 267.076864,38 267.459018,38 C268.415655,37.9992092 269.351446,37.7018832 270.134376,37.1322718 C271.229422,36.3349214 271.8581,35.1261117 271.8581,33.8158211 L271.8581,27.9315064 L289.144815,27.9315064 C290.169266,27.9315064 291,27.1436451 291,26.1720637 C291,25.2002187 290.169266,24.4123573 289.144815,24.4123573" id="Fill-12" fill="#0096E5"></path>
                    <path d="M157.99985,8 C156.895513,8 156,8.78608999 156,9.75575001 L156,28.24425 C156,29.21391 156.895513,30 157.99985,30 C159.104487,30 160,29.21391 160,28.24425 L160,9.75575001 C160,8.78608999 159.104487,8 157.99985,8" id="Fill-14" fill="#0096E5"></path>
                    <path d="M171,10.0044656 C171,9.00502197 170.188929,8.19478685 169.188725,8.19478685 L166.622821,8.19478685 L166.622821,1.80940764 C166.622821,0.81023512 165.81175,0 164.811275,0 C163.811071,0 163,0.81023512 163,1.80940764 L163,36.1905924 C163,37.1897649 163.811071,38 164.811275,38 C165.81175,38 166.622821,37.1897649 166.622821,36.1905924 L166.622821,11.8138732 L169.188725,11.8138732 C170.188929,11.8138732 171,11.0039091 171,10.0044656" id="Fill-16" fill="#0096E5"></path>
                    <path d="M249.816749,13 C250.820247,13 251.633769,12.2311469 251.633769,11.2830063 L251.633769,7.14704483 L284.258218,7.14704483 C284.869517,7.14704483 285.366503,7.61648507 285.366503,8.1942181 L285.366503,11.2830063 C285.366503,12.2311469 286.180025,13 287.183251,13 C288.186478,13 289,12.2311469 289,11.2830063 L289,8.1942181 C289,5.72329047 286.872703,3.71280011 284.258218,3.71280011 L283.558736,3.71280011 L284.39757,2.97249928 C285.130258,2.3250576 285.170267,1.23852852 284.485482,0.545043104 C283.798792,-0.1474134 282.65077,-0.182653572 281.916994,0.46221584 L278.577987,3.40927163 C278.472929,3.50187354 278.383929,3.60450732 278.307448,3.71280011 L269.991231,3.71280011 C269.91475,3.60450732 269.82575,3.50187354 269.720692,3.40927163 L266.381413,0.46221584 C265.648725,-0.184196937 264.497982,-0.148956766 263.813197,0.545043104 C263.128412,1.23852852 263.168149,2.3250576 263.901109,2.97249928 L264.739943,3.71280011 L259.755384,3.71280011 C259.678903,3.60450732 259.589903,3.50187354 259.484845,3.40927163 L256.145566,0.46221584 C255.412878,-0.184196937 254.262135,-0.148956766 253.57735,0.545043104 C252.892565,1.23852852 252.932574,2.3250576 253.665262,2.97249928 L254.504096,3.71280011 L249.816749,3.71280011 C248.813522,3.71280011 248,4.48165319 248,5.42979386 L248,11.2830063 C248,12.2311469 248.813522,13 249.816749,13" id="Fill-18" fill="#0096E5"></path>
                    <path d="M240.250102,26.9180005 C239.794108,26.0657818 238.742732,25.7511974 237.904843,26.2122898 C237.0654,26.6752234 236.753977,27.7410228 237.209971,28.5932415 L241.749958,37.0817607 C242.063195,37.6683186 242.6578,38 243.271578,38 C243.550356,38 243.83328,37.931349 244.094958,37.7874714 C244.934401,37.3242747 245.246083,36.2587383 244.790089,35.4065196 L240.250102,26.9180005 Z" id="Fill-20" fill="#0096E5"></path>
                    <path d="M41.1828264,2.44070689 L32.6669346,2.44070689 L32.6669346,1.62705667 C32.6669346,0.728580134 31.8533439,0 30.849761,0 C29.8464504,0 29.0328596,0.728580134 29.0328596,1.62705667 L29.0328596,2.44070689 L13.9668682,2.44070689 L13.9668682,1.62705667 C13.9668682,0.728580134 13.1535496,0 12.1499668,0 C11.1466561,0 10.3330654,0.728580134 10.3330654,1.62705667 L10.3330654,2.44070689 L1.81690141,2.44070689 C0.813590758,2.44070689 0,3.16928702 0,4.06776356 C0,4.96648385 0.813590758,5.69506399 1.81690141,5.69506399 L10.3330654,5.69506399 L10.3330654,6.37269957 C10.3330654,7.27141987 11.1466561,8 12.1499668,8 C13.1535496,8 13.9668682,7.27141987 13.9668682,6.37269957 L13.9668682,5.69506399 L29.0328596,5.69506399 L29.0328596,6.37269957 C29.0328596,7.27141987 29.8464504,8 30.849761,8 C31.8533439,8 32.6669346,7.27141987 32.6669346,6.37269957 L32.6669346,5.69506399 L41.1828264,5.69506399 C42.1864092,5.69506399 43,4.96648385 43,4.06776356 C43,3.16928702 42.1864092,2.44070689 41.1828264,2.44070689" id="Fill-22" fill="#0096E5"></path>
                    <path d="M5.9998502,23 C7.10448656,23 8,22.2175051 8,21.2522798 L8,12.7474584 C8,11.7824949 7.10448656,11 5.9998502,11 C4.89551344,11 4,11.7824949 4,12.7474584 L4,21.2522798 C4,22.2175051 4.89551344,23 5.9998502,23" id="Fill-24" fill="#0096E5"></path>
                    <path d="M16,21.2523179 L16,12.7476821 C16,11.7824778 15.1044866,11 14.0001498,11 C12.8955134,11 12,11.7824778 12,12.7476821 L12,21.2523179 C12,22.2175222 12.8955134,23 14.0001498,23 C15.1044866,23 16,22.2175222 16,21.2523179" id="Fill-26" fill="#0096E5"></path>
                    <path d="M58.2073797,15.6972758 C59.1972761,15.6972758 59.9997715,14.8695358 59.9997715,13.8484995 C59.9997715,12.8277401 59.1972761,12 58.2073797,12 L47.7921232,12 C46.8024953,12 46,12.8277401 46,13.8484995 C46,14.8695358 46.8024953,15.6972758 47.7921232,15.6972758 L50.4211076,15.6972758 L50.4211076,21.3225297 L47.7921232,21.3225297 C46.8024953,21.3225297 46,22.1502697 46,23.1713061 C46,24.1920655 46.8024953,25.0198055 47.7921232,25.0198055 L50.4211076,25.0198055 L50.4211076,35.4074032 C50.4211076,36.6629982 51.0402292,37.8058832 52.077647,38.4646967 C52.6390447,38.8202732 53.2678317,39 53.8993034,39 C54.4343898,39 54.972161,38.8709512 55.4710022,38.6109151 L59.0160502,36.7624156 C59.8993589,36.3010523 60.2534878,35.1889064 59.8067323,34.2783647 C59.3602453,33.3664383 58.2804071,33.0044924 57.3987093,33.4622556 L54.0056226,35.2323843 L54.0056226,25.0198055 L58.2073797,25.0198055 C59.1972761,25.0198055 59.9997715,24.1920655 59.9997715,23.1713061 C59.9997715,22.1502697 59.1972761,21.3225297 58.2073797,21.3225297 L54.0056226,21.3225297 L54.0056226,15.6972758 L58.2073797,15.6972758 Z" id="Fill-28" fill="#0096E5"></path>
                    <path d="M58.2039952,3.50032139 L50.437539,3.50032139 L50.8868092,2.39387667 C51.2516059,1.49582417 50.7996454,0.479027425 49.8776999,0.123581076 C48.9541402,-0.232651658 47.9119409,0.20746222 47.5468752,1.10708749 L46.12589,4.6067661 C45.9071734,5.1451782 45.9763126,5.75436501 46.3109786,6.23353604 C46.6448375,6.71296921 47.2014483,7 47.7959915,7 L58.2039952,7 C59.195887,7 60,6.21649769 60,5.25029176 C60,4.2838237 59.195887,3.50032139 58.2039952,3.50032139" id="Fill-30" fill="#0096E5"></path>
                    <path d="M89.1749509,15.9230314 L87.3222909,15.9230314 L87.3222909,4.98367154 C87.3222909,2.78697568 85.5844483,1 83.4477521,1 L69.9826841,1 C67.8459879,1 66.1081453,2.78697568 66.1081453,4.98367154 L66.1081453,12.1383186 C66.1081453,13.4250873 65.6223586,14.6359818 64.7396318,15.5492812 L63.5296757,16.802328 C62.8197217,17.5377448 62.8240957,18.7258771 63.5389704,19.4548305 C63.8951776,19.8187452 64.3601878,20 64.8249247,20 C65.2940356,20 65.7631465,19.814811 66.1201738,19.445838 L67.3295832,18.1927912 C68.8951998,16.5724576 69.7576968,14.4226912 69.7576968,12.1383186 L69.7576968,4.98367154 C69.7576968,4.85524759 69.8591188,4.75183399 69.9826841,4.75183399 L83.4477521,4.75183399 C83.5715908,4.75183399 83.6727395,4.85524759 83.6727395,4.98367154 L83.6727395,17.7988079 C83.6727395,18.834911 84.4898563,19.6748654 85.4975152,19.6748654 L89.1749509,19.6748654 C90.1828832,19.6748654 91,18.834911 91,17.7988079 C91,16.7629859 90.1828832,15.9230314 89.1749509,15.9230314" id="Fill-32" fill="#0096E5"></path>
                    <path d="M79.8842192,33.5012563 L72.1160619,33.5012563 C69.1583163,33.5012563 66.7522673,31.257249 66.7522673,28.500131 C66.7522673,25.742751 69.1583163,23.4987437 72.1160619,23.4987437 L79.8842192,23.4987437 C82.8416837,23.4987437 85.2477327,25.742751 85.2477327,28.500131 C85.2477327,31.257249 82.8416837,33.5012563 79.8842192,33.5012563 M79.8842192,20 L72.1160619,20 C67.0895245,20 63,23.8132139 63,28.500131 C63,33.1870481 67.0895245,37 72.1160619,37 L79.8842192,37 C84.9107566,37 89,33.1870481 89,28.500131 C89,23.8132139 84.9107566,20 79.8842192,20" id="Fill-34" fill="#0096E5"></path>
                    <path d="M93.7470821,12 C94.3461439,12 94.9294892,11.655737 95.2553452,11.0347136 L97.4517305,6.85718669 L102.676168,6.85718669 L105.471877,11.1887955 C105.813711,11.7188372 106.348335,12 106.890032,12 C107.245225,12 107.603824,11.8793759 107.91344,11.628736 C108.695861,10.9945056 108.871624,9.7691877 108.305567,8.8928286 L106.991665,6.85718669 L110.251536,6.85718669 C111.217055,6.85718669 112,5.97994713 112,4.8981455 C112,3.81605039 111.217055,2.93881082 110.251536,2.93881082 L99.5108581,2.93881082 C99.9907362,2.00903666 99.7130775,0.817176546 98.8850782,0.270699438 C98.0528879,-0.277245118 96.9812824,0.0326796015 96.4911885,0.965388652 L92.2422242,9.04691049 C91.7521303,9.97873907 92.0292652,11.1802843 92.8611936,11.7294028 C93.1399001,11.9128337 93.4455866,12 93.7470821,12" id="Fill-36" fill="#0096E5"></path>
                    <path d="M130.251518,2.93881082 L119.510993,2.93881082 C119.990876,2.00903666 119.712953,0.817176546 118.885207,0.270699438 C118.052746,-0.277245118 116.980868,0.0326796015 116.491293,0.965388652 L112.242285,9.04691049 C111.752186,9.97873907 112.029062,11.1802843 112.861261,11.7291094 C113.13997,11.9128337 113.44566,12 113.746897,12 C114.345964,12 114.929578,11.6554435 115.255175,11.0347136 L117.451583,6.85718669 L122.676073,6.85718669 L125.47181,11.1887955 C125.81391,11.7188372 126.348278,12 126.88998,12 C127.245177,12 127.603779,11.8793759 127.913398,11.628736 C128.695828,10.9945056 128.871855,9.7691877 128.305792,8.8928286 L126.991614,6.85718669 L130.251518,6.85718669 C131.217309,6.85718669 132,5.97994713 132,4.89785201 C132,3.81605039 131.217309,2.93881082 130.251518,2.93881082" id="Fill-38" fill="#0096E5"></path>
                    <path d="M130.212596,27.3217895 L109.876189,27.3217895 L110.335892,24.2367034 L128.704708,24.2367034 C129.691582,24.2367034 130.491844,23.4124143 130.491844,22.3959106 C130.491844,21.3791311 129.691582,20.554842 128.704708,20.554842 L110.885018,20.554842 L111.359713,17.3693741 L125.337663,17.3693741 C127.167369,17.3693741 128.945938,16.8283051 130.479796,15.8051828 L131.107637,15.3873848 C131.936547,14.8352849 132.174296,13.69551 131.638557,12.8417131 C131.102817,11.9876404 129.996533,11.7433044 129.167623,12.2951286 L128.538444,12.7140296 C127.583163,13.3505165 126.476611,13.6875126 125.337663,13.6875126 L94.8621023,13.6875126 C93.8749605,13.6875126 93.0746983,14.5118017 93.0746983,15.5283054 C93.0746983,16.545085 93.8749605,17.3693741 94.8621023,17.3693741 L107.743138,17.3693741 L107.268175,20.554842 L96.2950242,20.554842 C95.3078824,20.554842 94.5076202,21.3791311 94.5076202,22.3959106 C94.5076202,23.4124143 95.3078824,24.2367034 96.2950242,24.2367034 L106.719317,24.2367034 L106.259614,27.3217895 L94.7874041,27.3217895 C93.80053,27.3217895 93,28.1460786 93,29.1625824 C93,30.1793619 93.80053,31.003651 94.7874041,31.003651 L105.710756,31.003651 L105.377961,33.236319 C105.364306,33.3289791 105.357345,33.4224666 105.357345,33.5159541 C105.357345,36.5398183 107.745816,39 110.682074,39 L129.038575,39 C130.025449,39 130.825711,38.1757109 130.825711,37.1592071 C130.825711,36.1424276 130.025449,35.3181385 129.038575,35.3181385 L110.682074,35.3181385 C109.754905,35.3181385 108.993732,34.5721693 108.935366,33.632055 L109.327063,31.003651 L130.212596,31.003651 C131.199738,31.003651 132,30.1793619 132,29.1625824 C132,28.1460786 131.199738,27.3217895 130.212596,27.3217895" id="Fill-40" fill="#0096E5"></path>
                    <path d="M42.999993,12.7870724 C43.0027941,11.821236 42.1683409,11.0358881 41.1355686,11.0332686 L28.5873986,11 L28.5728328,11 C27.3613491,11 26.221574,11.4395643 25.3619108,12.2387959 C24.4994464,13.040647 24.0218558,14.1096946 24.0182143,15.2478989 L24.000007,21.2461962 C23.9972059,22.2117706 24.8319392,22.9973804 25.8644314,23 L25.8700337,23 C26.900285,23 27.7369791,22.2204152 27.7397802,21.2564125 L27.7579874,15.2581152 C27.7588278,14.9830601 27.9092478,14.8020476 27.9986035,14.7192691 C28.0882393,14.6357048 28.2806761,14.4973913 28.5742333,14.4973913 L28.5761941,14.4973913 L41.1246442,14.5306599 L41.1302465,14.5306599 C42.1604978,14.5306599 42.9971919,13.7510751 42.999993,12.7870724" id="Fill-42" fill="#0096E5"></path>
                    <path d="M30.3661726,15.1248663 C29.4778115,14.7635769 28.4722469,15.2133942 28.1208956,16.1247262 C27.7705816,17.0373876 28.2075018,18.0675543 29.0966408,18.4264511 L37.6338274,21.8750507 C37.8423044,21.9601226 38.0570047,22 38.268334,22 C38.9583308,22 39.6107291,21.5735774 39.8791044,20.8751908 C40.2294184,19.9627954 39.7924982,18.9323627 38.9033592,18.5737318 L30.3661726,15.1248663 Z" id="Fill-44" fill="#0096E5"></path>
                    <path d="M36.6683526,35.3400321 L6.33164738,35.3400321 L6.33164738,30.457699 C6.33164738,30.0182616 6.68686856,29.6599679 7.12402198,29.6599679 L13.5384182,29.6599679 L12.3069848,32.302075 C11.8809916,33.2171355 12.2715988,34.3062714 13.1802028,34.736114 C13.4295381,34.8539918 13.6922113,34.909367 13.9508014,34.909367 C14.6334794,34.909367 15.2878485,34.5206444 15.5970678,33.856691 L17.5528258,29.6599679 L26.4491429,29.6599679 L25.2177095,32.302075 C24.7914441,33.2171355 25.1823234,34.3062714 26.0906553,34.736114 C26.3399906,34.8539918 26.6026638,34.909367 26.8612539,34.909367 C27.5439318,34.909367 28.198301,34.5206444 28.5075203,33.856691 L30.4635505,29.6599679 L35.8757058,29.6599679 C36.312587,29.6599679 36.6683526,30.0182616 36.6683526,30.457699 L36.6683526,35.3400321 Z M41.1830641,35.3400321 L40.3024966,35.3400321 L40.3024966,30.457699 C40.3024966,27.9995361 38.3162522,26 35.8757058,26 L7.12402198,26 C4.68320335,26 2.69750336,27.9995361 2.69750336,30.457699 L2.69750336,35.3400321 L1.81693591,35.3400321 C0.813606209,35.3400321 0,36.1594197 0,37.1701531 C0,38.1806124 0.813606209,39 1.81693591,39 L41.1830641,39 C42.1863938,39 43,38.1806124 43,37.1701531 C43,36.1594197 42.1863938,35.3400321 41.1830641,35.3400321 L41.1830641,35.3400321 Z" id="Fill-46" fill="#0096E5"></path>
                    <path d="M146,19 C144.895344,19 144,19.8953436 144,21 C144,22.1046564 144.895344,23 146,23 C147.104656,23 148,22.1046564 148,21 C148,19.8953436 147.104656,19 146,19" id="Fill-48" fill="#0096E5"></path>
                </g>
            </g>
        </g>
    </g>
</svg>